<svg width="158" height="40" viewBox="0 0 158 40" fill="none" xmlns="http://www.w3.org/2000/svg">
<g clip-path="url(#clip0_283_2)">
<path d="M117.283 20C117.283 5.45448 122.836 0 137.642 0C152.448 0 158 5.45519 158 20C158 34.5448 152.447 40 137.642 40C122.836 40 117.283 34.5455 117.283 20Z" fill="#2563EB"/>
<path d="M16.5206 26.591L12.9536 14.9509H10.0526L6.53413 26.4637L4.25216 17.0028C3.95822 15.7852 2.88457 14.9509 1.6111 14.9509H0.000976562L4.69378 31.808H5.85938C7.07131 31.808 8.09863 31.0619 8.45411 29.9239L11.481 20.2319L14.5616 29.936C14.9214 31.0683 15.9458 31.8087 17.1527 31.8087H18.3277L23.0096 14.9516H21.4082C20.1282 14.9516 19.0502 15.7945 18.7628 17.0199L16.5199 26.5917L16.5206 26.591ZM88.4722 10.8563H87.3326V14.9509H87.2218C85.7268 14.9509 84.5077 16.1486 84.5077 17.6174V17.7532H87.3333V27.3037C87.3333 30.5156 88.811 32.1216 91.772 32.1216C92.5894 32.1216 93.4336 31.9993 94.311 31.7603V28.83C93.8564 28.9367 93.4068 28.9893 92.963 28.9893C92.2969 28.9893 91.8314 28.8457 91.5773 28.5583C91.3174 28.271 91.1878 27.8087 91.1878 27.165V17.7525H91.4991C92.9941 17.7525 94.2133 16.5548 94.2133 15.0861V14.9502H91.1878V13.522C91.1878 12.0533 89.9686 10.8556 88.4736 10.8556L88.4722 10.8563ZM33.1438 32.1216C34.5672 32.1216 35.8558 31.84 37.0033 31.2866C38.1508 30.7283 39.0659 29.9467 39.753 28.9417L39.4808 28.6863C38.5744 27.8357 37.243 27.6991 36.1773 28.3471C35.3563 28.8464 34.4187 29.096 33.3654 29.096C32.1042 29.096 31.0595 28.692 30.2313 27.8834C29.403 27.0697 28.9267 25.9687 28.813 24.5811H40.023V23.0548C40.023 20.3748 39.3896 18.3009 38.1125 16.8385C36.8404 15.3713 35.0327 14.6373 32.6993 14.6373C31.2267 14.6373 29.8953 15.0092 28.6993 15.7432C27.5084 16.4822 26.5774 17.5142 25.9171 18.8378C25.2568 20.1622 24.9267 21.6671 24.9267 23.3471V23.8151C24.9267 26.3307 25.6847 28.3407 27.2058 29.8506C28.7218 31.3663 30.7026 32.1216 33.1438 32.1216ZM32.6841 17.6785C33.7505 17.6785 34.5838 18.0028 35.1905 18.6515C35.7914 19.3001 36.1324 20.2575 36.2193 21.5235V21.8051H28.8789C29.0577 20.5078 29.474 19.4972 30.1241 18.7688C30.7735 18.0405 31.6235 17.6785 32.6848 17.6785H32.6841ZM58.0703 23.5491V23.3314C58.0703 20.5932 57.4752 18.4552 56.2784 16.9289C55.0875 15.4026 53.4419 14.6373 51.3474 14.6373C49.4695 14.6373 47.9694 15.2859 46.8602 16.5733V10.5455C46.8602 9.07681 45.6411 7.87909 44.1461 7.87909H43.0065V29.1422C43.0065 30.611 44.2257 31.8087 45.7207 31.8087H46.4975L46.6872 29.9844C47.8079 31.4097 49.3717 32.1223 51.38 32.1223C53.4643 32.1223 55.0984 31.3457 56.2893 29.7987C57.4802 28.2511 58.0703 26.1664 58.0703 23.5505V23.5491ZM54.2216 23.2248V23.7084C54.1999 25.49 53.8589 26.8243 53.2037 27.7077C52.5485 28.596 51.6175 29.037 50.4106 29.037C48.7324 29.037 47.5473 28.303 46.8595 26.8357V19.8912C47.5364 18.4552 48.7107 17.7376 50.3831 17.7376C51.6283 17.7376 52.5811 18.1949 53.2356 19.1095C53.8908 20.0242 54.2209 21.3962 54.2209 23.2255L54.2216 23.2248ZM70.9208 27.229C70.9208 27.8407 70.6559 28.335 70.1252 28.7127C69.5945 29.096 68.8264 29.2816 67.8085 29.2816C66.7638 29.2816 65.9247 29.0427 65.2912 28.5583C65.0183 28.3521 64.8003 28.1081 64.6353 27.8279C64.1372 26.9801 63.2814 26.495 62.2853 26.495H60.5173C60.5173 27.5 60.8207 28.441 61.4375 29.3137C62.0492 30.1856 62.9043 30.872 64.0033 31.3713C65.1022 31.8713 66.3576 32.1209 67.7657 32.1209C69.8334 32.1209 71.5116 31.6479 72.7887 30.7063C74.0716 29.7703 74.7101 28.542 74.7101 27.0263C74.7101 26.1223 74.4987 25.3514 74.0824 24.7183C73.6654 24.0853 73.0269 23.5427 72.1661 23.091C71.3002 22.6387 70.1143 22.2511 68.6041 21.9211C67.0939 21.5967 66.0869 21.2724 65.5888 20.9481C65.0907 20.6238 64.8474 20.1771 64.8474 19.5917C64.8474 18.9481 65.1124 18.4324 65.6431 18.0498C66.1788 17.6671 66.8716 17.4751 67.7165 17.4751C68.6258 17.4751 69.3563 17.7141 69.9029 18.1984C70.0948 18.367 70.2526 18.5498 70.3771 18.7475C70.8861 19.5562 71.7179 20.0121 72.6859 20.0121H74.5798C74.5798 18.4218 73.9521 17.1302 72.6852 16.1358C71.424 15.1358 69.7675 14.6366 67.7165 14.6366C65.7893 14.6366 64.2031 15.1259 62.9586 16.1038C61.7082 17.0768 61.0856 18.2952 61.0856 19.7468C61.0856 21.4858 62.0492 22.8101 63.9707 23.7191C64.8532 24.1394 65.9464 24.4794 67.2561 24.7504C68.5665 25.0213 69.5026 25.33 70.0709 25.6863C70.6341 26.037 70.9208 26.5533 70.9208 27.2283V27.229ZM82.1634 31.8073V17.6166C82.1634 16.1479 80.9443 14.9502 79.4493 14.9502H78.3097V29.1408C78.3097 30.6095 79.5289 31.8073 81.0239 31.8073H82.1634ZM78.0715 10.574C78.0715 11.143 78.2612 11.6216 78.6348 11.9993C79.0134 12.377 79.5492 12.5683 80.2478 12.5683C80.9406 12.5683 81.4822 12.377 81.8608 11.9993C82.2452 11.6216 82.4342 11.143 82.4342 10.574C82.4342 9.98933 82.2445 9.51067 81.8608 9.12233C81.4822 8.73969 80.9406 8.54836 80.2478 8.54836C79.5492 8.54836 79.0134 8.73969 78.6348 9.12233C78.2612 9.51067 78.0715 9.98933 78.0715 10.574ZM104.714 32.1209C106.137 32.1209 107.426 31.8393 108.573 31.2859C109.721 30.7276 110.636 29.9459 111.323 28.941L111.051 28.6856C110.144 27.835 108.813 27.6984 107.747 28.3464C106.926 28.8457 105.989 29.0953 104.935 29.0953C103.674 29.0953 102.629 28.6913 101.801 27.8826C100.973 27.069 100.497 25.968 100.383 24.5804H111.593V23.0541C111.593 20.3741 110.96 18.3001 109.682 16.8378C108.41 15.3706 106.603 14.6366 104.269 14.6366C102.797 14.6366 101.465 15.0085 100.269 15.7425C99.0784 16.4815 98.1474 17.5135 97.4871 18.8371C96.8268 20.1615 96.4967 21.6664 96.4967 23.3464V23.8144C96.4967 26.33 97.2547 28.34 98.7758 29.8499C100.292 31.3656 102.273 32.1209 104.714 32.1209ZM104.254 17.6778C105.32 17.6778 106.154 18.0021 106.76 18.6508C107.361 19.2994 107.702 20.2568 107.789 21.5228V21.8044H100.449C100.628 20.5071 101.045 19.4964 101.694 18.7681C102.344 18.0398 103.193 17.6778 104.254 17.6778Z" fill="#334155"/>
<path fillRule="evenodd" clipRule="evenodd" d="M126.343 31.6946L144.567 31.696C144.296 29.92 143.573 28.031 142.876 26.531C142.514 25.7515 142.067 24.9385 141.651 24.2913C141.159 23.526 140.63 22.9015 140.228 22.2678C139.887 22.4328 138.113 24.0182 137.639 24.4534C137.951 25.0744 139.276 26.5189 139.929 28.3119L128.055 28.3418L128.054 11.6675L134.891 11.664C130.294 15.723 134.891 11.664 130.294 15.723L130.282 20.0964C143.992 8.31689 130.282 20.0964 143.992 8.31689L126.353 8.30693C125.414 8.30622 124.648 9.058 124.648 9.98048L124.639 30.0196C124.638 30.9421 125.404 31.6946 126.343 31.6946Z" fill="white"/>
<path fillRule="evenodd" clipRule="evenodd" d="M130.293 23.1821L130.285 26.1401C132.444 26.1721 131.907 26.2482 133.145 25.2383C147.205 13.2027 133.145 25.2383 147.205 13.2027L147.213 22.3535C146.847 21.9595 146.242 20.8663 145.905 20.362L144.505 18.5007C141.931 20.6643 144.505 18.5007 141.931 20.6643L143.569 22.9957C144.092 23.776 144.559 24.6871 145.012 25.6095C145.847 27.3122 146.626 29.6259 146.947 31.6856L148.928 31.692C149.398 31.6935 149.803 31.5299 150.136 31.2034C150.469 30.877 150.637 30.4801 150.637 30.0178L150.643 9.14581C150.643 8.68563 150.261 8.30939 149.793 8.30868L148.238 8.30512C147.383 8.30512 147.35 8.60029 146.871 9.00498C132.548 21.2952 146.871 9.00498 132.548 21.2952L130.292 23.1828L130.293 23.1821Z" fill="white"/>
</g>
<defs>
<clipPath id="clip0_283_2">
<rect width="158" height="40" fill="white"/>
</clipPath>
</defs>
</svg>
